<?xml version="1.0" encoding="UTF-8"?>
<svg xmlns="http://www.w3.org/2000/svg" xmlns:xlink="http://www.w3.org/1999/xlink" width="75px" height="75px" viewBox="0 0 75 75" version="1.1">
<g id="surface1">
<path style=" stroke:none;fill-rule:evenodd;fill:rgb(9.019608%,46.666667%,94.901961%);fill-opacity:1;" d="M 65.835938 0 C 70.894531 0 75 4.105469 75 9.164062 L 75 65.835938 C 75 70.894531 70.894531 75 65.835938 75 L 50.242188 75 L 50.242188 46.742188 L 59.996094 46.742188 L 61.851562 34.636719 L 50.242188 34.636719 L 50.242188 26.785156 C 50.242188 23.472656 51.863281 20.246094 57.0625 20.246094 L 62.34375 20.246094 L 62.34375 9.941406 C 62.34375 9.941406 57.550781 9.125 52.972656 9.125 C 43.40625 9.125 37.15625 14.921875 37.15625 25.414062 L 37.15625 34.636719 L 26.527344 34.636719 L 26.527344 46.742188 L 37.15625 46.742188 L 37.15625 75 L 9.164062 75 C 4.105469 75 0 70.894531 0 65.835938 L 0 9.164062 C 0 4.105469 4.105469 0 9.164062 0 Z M 65.835938 0 "/>
</g>
</svg>
